<svg xmlns="http://www.w3.org/2000/svg" width="66" height="65.998" viewBox="0 0 66 65.998">
  <defs>
    <style>
      .cls-1 {
        fill: #b5adad;
      }
    </style>
  </defs>
  <path id="alfaromeo" class="cls-1" d="M37.232,14.864a.594.594,0,1,0-.594-.594.594.594,0,0,0,.594.594ZM11.642,19.2l-1.8,3.571L6.17,20.844l-.759,1.516a1.187,1.187,0,0,1,.252-.027,1.046,1.046,0,0,1,.422.083l4.1,2.149,2.439-4.851Zm43.236,1.189.855-.464,1.4,2.693.962-.521-1.4-2.693.816-.442,2.017,3.876.961-.521L57.7,16.955a1.126,1.126,0,0,1-.454.519l-3.99,2.164,2.77,5.323.962-.522ZM34.84,14.864a.594.594,0,1,0-.594-.594.594.594,0,0,0,.594.594ZM48.748,19.04l.007.009a21.027,21.027,0,0,1-7.1,33.126c-.025.012-.049.026-.075.037l.006,0,.069-.032a3.537,3.537,0,0,0-1.517-6.733l-3.725,0a.455.455,0,1,1,0-.911h6.291a5.362,5.362,0,0,0,0-10.723H36.634a.455.455,0,1,1,0-.911l4.639-.005a8.863,8.863,0,0,0,7.4-13.735l-.023-.033a.063.063,0,0,1-.013-.037.065.065,0,0,1,.065-.065.043.043,0,0,1,.043.02ZM39.789,52.914a21.091,21.091,0,0,1-15.6-.833V35.511h5.954a6.708,6.708,0,0,1,.41-5.179H24.188V13.918a21.057,21.057,0,0,1,18.963.65h0a1.533,1.533,0,0,1-.818,2.829H41.81l-2.09,0a1.994,1.994,0,0,0-1.393.437c-.73.633-.48,1.383-1.978,1.383H32.218a6.426,6.426,0,0,0,2.16,2.435h5.074a.491.491,0,0,1,.455.308.429.429,0,0,1,.028.267.491.491,0,0,1-.483.408H34.287a4.6,4.6,0,0,0-2.159,2.657h9.323a1.1,1.1,0,0,1,0,2.2H36.729a5.894,5.894,0,0,0,0,11.787h5.889a.461.461,0,0,1,.455.462.45.45,0,0,1-.455.449H36.587a4.317,4.317,0,1,0,0,8.634l2.278.008a2.123,2.123,0,0,1,2.1,2.108,2.307,2.307,0,0,1-1.174,1.968ZM19.01,30.333H12.169a20.98,20.98,0,0,1,6.841-13Zm0,18.338a20.982,20.982,0,0,1-6.859-13.159H19.01ZM33.027,10.836A22.163,22.163,0,1,0,55.19,33,22.164,22.164,0,0,0,33.027,10.836ZM32.2,16.361H37.43a.4.4,0,0,0,0-.793H32.2a.4.4,0,0,0,0,.793Zm.2-1.5a.594.594,0,1,0-.594-.594.594.594,0,0,0,.594.594Zm.822,7.294.074-.071h0l-.074-.071a5.659,5.659,0,0,1-1.98-2.688,3.581,3.581,0,0,0-.8-1.346,1.478,1.478,0,0,0-1.153-.53,2.671,2.671,0,0,0-.633.08l-.125.03.078.144a1.382,1.382,0,0,0,.708.73.328.328,0,0,0,.1.013q.046,0,.091-.005c.025,0,.049,0,.072,0a.1.1,0,0,1,.034,0c.407.235.62,1.971.62,2.835,0,.148-.061.215-.2.215a.682.682,0,0,1-.421-.176,1.286,1.286,0,0,0-.954-.4,1.225,1.225,0,0,0-1.285,1.1v.14a1.226,1.226,0,0,0,1.285,1.1,1.286,1.286,0,0,0,.954-.4.683.683,0,0,1,.421-.176c.136,0,.2.066.2.214,0,.865-.213,2.6-.62,2.835a.108.108,0,0,1-.034,0q-.036,0-.072,0t-.092-.005a.328.328,0,0,0-.1.013,1.382,1.382,0,0,0-.708.73l-.078.144.125.031a2.7,2.7,0,0,0,.633.08,1.476,1.476,0,0,0,1.153-.53,3.581,3.581,0,0,0,.8-1.346,5.659,5.659,0,0,1,1.98-2.688ZM7.255,27.994,6.919,30.2,4.995,28.75Zm-3.5,1.752a.678.678,0,0,1,.267-.053.694.694,0,0,1,.339.087l.008,0,4.2,3.227.213-1.4-.853-.642L8.436,27.6l1-.334.213-1.4L4.064,27.745ZM33,64.679A31.68,31.68,0,1,1,64.679,33,31.68,31.68,0,0,1,33,64.679ZM33,0A33,33,0,1,0,66,33,33,33,0,0,0,33,0Zm7.336,7.268a1.468,1.468,0,0,1,1.514-.981,2.969,2.969,0,0,1,1,.188c1.209.435,1.787,1.307,1.471,2.221a1.472,1.472,0,0,1-1.516.987A2.993,2.993,0,0,1,41.8,9.494c-1.206-.433-1.78-1.307-1.462-2.226Zm1.079,3.346A4.69,4.69,0,0,0,43,10.9h0a2.653,2.653,0,0,0,2.679-1.716,2.531,2.531,0,0,0-.334-2.277,4.259,4.259,0,0,0-2.113-1.556,4.625,4.625,0,0,0-1.563-.283,2.661,2.661,0,0,0-2.694,1.7c-.527,1.527.5,3.141,2.438,3.837Zm8.51.438-.505,4,.063.059,3.833-.9-2.107,2.852,1.033.964,3.2-4.215L54.251,12.71l-3.343.749.408-3.485L50.073,8.815h0l-.152-.141a1.01,1.01,0,0,1-.26.643l-3.312,3.217,1.039.969Zm9.967,20.574a1.484,1.484,0,0,1-.253.022c-.828,0-1.462-.722-1.655-1.884-.213-1.285.258-2.22,1.2-2.385a1.555,1.555,0,0,1,.249-.021c.814,0,1.462.736,1.652,1.877.215,1.289-.254,2.227-1.194,2.39Zm2.336-2.59c-.309-1.853-1.492-3.147-2.876-3.147a2.475,2.475,0,0,0-.407.035c-1.562.272-2.446,1.97-2.1,4.039.314,1.886,1.47,3.153,2.876,3.153a2.428,2.428,0,0,0,.416-.036C61.69,32.811,62.571,31.11,62.227,29.037ZM34.189,4.749h0a.734.734,0,0,1,.749.792.714.714,0,0,1-.757.783l-2.72.024-.014-1.575ZM30.078,8.938l1.4-.012L31.47,7.462l2.357-.021L34.858,8.9l1.566-.014L35.241,7.316l.146-.07A1.71,1.71,0,0,0,36.322,5.6a1.872,1.872,0,0,0-2-1.967l-4.286.037v0h-.248a1.14,1.14,0,0,1,.254.609Zm-9.307.89-1.938,1.113L18.77,8.531Zm-3.2-1.159,0,.009.092,5.3,1.23-.707-.03-1.068,2.952-1.7.885.575,1.227-.705-4.949-3.2-1.76,1a.7.7,0,0,1,.351.489ZM10.307,15.33l3.325,3.191.964-1.046L13.372,16.3l2.046-2.22-.794-.762-2.047,2.22-.946-.908,2.946-3.2-.794-.762L9.7,15.1a1.156,1.156,0,0,1,.605.221l0,0Z" transform="translate(0 0)"/>
</svg>
