<svg xmlns="http://www.w3.org/2000/svg" width="66.162" height="63.065" viewBox="0 0 66.162 63.065">
  <defs>
    <style>
      .cls-1 {
        fill: #b5adad;
      }
    </style>
  </defs>
  <path id="bmw" class="cls-1" d="M33.081,0C14.812,0,0,14.119,0,31.532S14.812,63.065,33.081,63.065,66.162,48.946,66.162,31.532,51.35,0,33.081,0Zm0,2.05c17.081,0,30.928,13.2,30.928,29.483s-13.844,29.48-30.928,29.48S2.153,47.814,2.153,31.532,16,2.05,33.081,2.05ZM31.212,3.705c-.91.037-1.819.11-2.735.2l-.295,7.736q.974-.157,1.957-.247l.193-5.224-.036-.36.119.342,1.83,3.913h1.671l1.83-3.91.11-.344-.028.36.193,5.224c.64.058,1.3.142,1.957.247l-.3-7.736q-1.363-.146-2.735-.2l-1.8,4.27-.063.315-.063-.315-1.806-4.27ZM49.671,8.5l-4.254,6.38c.538.394,1.246.975,1.7,1.372l4.006-1.981.254-.181-.19.247-2.073,3.818c.449.46,1.1,1.2,1.461,1.655l6.7-4.057q-.616-.76-1.268-1.493l-4.243,2.664-.289.242.215-.3L53.564,13.3l-1.323-1.261L48.5,13.824l-.317.2.251-.279,2.806-4.044C50.746,9.307,50.275,8.942,49.671,8.5ZM15.162,9.946c-.992.1-1.759.744-3.84,2.956q-1.083,1.169-2.087,2.4l5.718,5.169c1.894-2,2.663-2.738,4.157-4.238,1.056-1.064,1.654-2.286.6-3.461a2.127,2.127,0,0,0-2.343-.46l-.077.026.028-.068a1.791,1.791,0,0,0-.67-1.929,2.067,2.067,0,0,0-1.48-.394Zm.017,1.616a.709.709,0,0,1,.849.526,1.163,1.163,0,0,1-.425,1c-.606.657-2.842,2.885-2.842,2.885L11.653,14.97a34.884,34.884,0,0,1,2.928-3.043,1.527,1.527,0,0,1,.6-.365Zm17.9,1.269c-10.06,0-18.491,7.247-19.518,16.786v.005A18.257,18.257,0,0,0,19.931,45.4,20.314,20.314,0,0,0,37.04,49.847C46.159,48.061,52.7,40.407,52.7,31.532c-.011-10.322-8.788-18.687-19.617-18.7v-.005Zm-15.264.636a.705.705,0,0,1,.386.113.633.633,0,0,1,.292.683,2.022,2.022,0,0,1-.565.836l-2.881,2.943-1.158-1.051s2.17-2.186,2.881-2.888a2.666,2.666,0,0,1,.656-.539.948.948,0,0,1,.386-.1Zm15.264,1.821A17.457,17.457,0,0,1,45.137,20.04a15.85,15.85,0,0,1,4.986,11.492H33.081V47.777a17.457,17.457,0,0,1-12.056-4.752,15.85,15.85,0,0,1-4.986-11.492H33.081Z"/>
</svg>
