<svg xmlns="http://www.w3.org/2000/svg" width="1235.715" height="66.159" viewBox="0 0 1235.715 66.159">
  <defs>
    <style>
      .cls-1 {
        fill: #b5adad;
      }

      .cls-2 {
        fill: #fff;
      }
    </style>
  </defs>
  <g id="brands" transform="translate(-342.143 -955.111)">
    <path id="bmw" class="cls-1" d="M33.081,0C14.812,0,0,14.119,0,31.532S14.812,63.065,33.081,63.065,66.162,48.946,66.162,31.532,51.35,0,33.081,0Zm0,2.05c17.081,0,30.928,13.2,30.928,29.483s-13.844,29.48-30.928,29.48S2.153,47.814,2.153,31.532,16,2.05,33.081,2.05ZM31.212,3.705c-.91.037-1.819.11-2.735.2l-.295,7.736q.974-.157,1.957-.247l.193-5.224-.036-.36.119.342,1.83,3.913h1.671l1.83-3.91.11-.344-.028.36.193,5.224c.64.058,1.3.142,1.957.247l-.3-7.736q-1.363-.146-2.735-.2l-1.8,4.27-.063.315-.063-.315-1.806-4.27ZM49.671,8.5l-4.254,6.38c.538.394,1.246.975,1.7,1.372l4.006-1.981.254-.181-.19.247-2.073,3.818c.449.46,1.1,1.2,1.461,1.655l6.7-4.057q-.616-.76-1.268-1.493l-4.243,2.664-.289.242.215-.3L53.564,13.3l-1.323-1.261L48.5,13.824l-.317.2.251-.279,2.806-4.044C50.746,9.307,50.275,8.942,49.671,8.5ZM15.162,9.946c-.992.1-1.759.744-3.84,2.956q-1.083,1.169-2.087,2.4l5.718,5.169c1.894-2,2.663-2.738,4.157-4.238,1.056-1.064,1.654-2.286.6-3.461a2.127,2.127,0,0,0-2.343-.46l-.077.026.028-.068a1.791,1.791,0,0,0-.67-1.929,2.067,2.067,0,0,0-1.48-.394Zm.017,1.616a.709.709,0,0,1,.849.526,1.163,1.163,0,0,1-.425,1c-.606.657-2.842,2.885-2.842,2.885L11.653,14.97a34.884,34.884,0,0,1,2.928-3.043,1.527,1.527,0,0,1,.6-.365Zm17.9,1.269c-10.06,0-18.491,7.247-19.518,16.786v.005A18.257,18.257,0,0,0,19.931,45.4,20.314,20.314,0,0,0,37.04,49.847C46.159,48.061,52.7,40.407,52.7,31.532c-.011-10.322-8.788-18.687-19.617-18.7v-.005Zm-15.264.636a.705.705,0,0,1,.386.113.633.633,0,0,1,.292.683,2.022,2.022,0,0,1-.565.836l-2.881,2.943-1.158-1.051s2.17-2.186,2.881-2.888a2.666,2.666,0,0,1,.656-.539.948.948,0,0,1,.386-.1Zm15.264,1.821A17.457,17.457,0,0,1,45.137,20.04a15.85,15.85,0,0,1,4.986,11.492H33.081V47.777a17.457,17.457,0,0,1-12.056-4.752,15.85,15.85,0,0,1-4.986-11.492H33.081Z" transform="translate(342.143 955.111)"/>
    <path id="honda" class="cls-1" d="M65.893,14.413c-.91-8.456-6.809-10.235-12-11.047a101.38,101.38,0,0,0-10.244-.893c-2.608-.158-8.733-.236-10.572-.236-1.811,0-7.967.079-10.572.236a102.093,102.093,0,0,0-10.244.893c-5.191.838-11.1,2.612-12,11.047-.221,2.3-.276,5.316-.248,8.535A107.706,107.706,0,0,0,.833,34.412a55.109,55.109,0,0,0,1.894,9.554c1.318,3.666,2.525,4.738,3.926,5.839,2.583,1.989,6.812,2.617,7.691,2.775,4.778.815,14.446.967,18.7.967s13.922-.131,18.7-.967c.907-.158,5.136-.762,7.691-2.775,1.4-1.1,2.608-2.173,3.926-5.839a55.229,55.229,0,0,0,1.924-9.554,100.871,100.871,0,0,0,.824-11.465,63.3,63.3,0,0,0-.221-8.535M62.651,28.6c-.524,6.753-1.152,10.784-2.059,13.717a11.044,11.044,0,0,1-3.212,5.5c-2.39,2.068-5.687,2.512-7.609,2.775a139.261,139.261,0,0,1-16.7.788,144.954,144.954,0,0,1-16.7-.788c-1.921-.263-5.219-.707-7.609-2.775a11.117,11.117,0,0,1-3.184-5.5c-.907-2.9-1.538-6.963-2.059-13.717a86.167,86.167,0,0,1,.221-14.19c.711-5.284,3.46-7.93,9.337-8.924a85.922,85.922,0,0,1,9.941-.972c2.8-.184,7.443-.263,10.024-.236,2.58-.026,7.223.079,10.024.236a85.372,85.372,0,0,1,9.941.972c5.905.993,8.654,3.666,9.34,8.926a75.758,75.758,0,0,1,.3,14.19M48.313,6.556C46.8,13.025,46.2,15.984,44.961,20.667c-1.18,4.507-2.114,8.666-3.68,10.682a7.283,7.283,0,0,1-5.219,2.643c-.769.079-1.318.105-2.939.131a23.79,23.79,0,0,1-2.964-.131,7.241,7.241,0,0,1-5.216-2.643c-1.593-2.015-2.5-6.175-3.68-10.679-1.3-4.659-1.869-7.647-3.407-14.111,0,0-1.511.053-2.2.105-.907.053-1.621.131-2.39.236.946,14.116,1.908,29.112,3.1,42.385a63.53,63.53,0,0,0,6.589.444c.91-3.327,2.062-7.936,3.327-9.9a4.468,4.468,0,0,1,3.57-1.884,25.932,25.932,0,0,1,3.212-.21,18.659,18.659,0,0,1,3.212.21,4.55,4.55,0,0,1,3.57,1.884c1.3,1.963,2.418,6.569,3.325,9.9,0,0,.987-.026,3.212-.131a33.089,33.089,0,0,0,3.38-.315c1.263-14.163,2.164-28.19,3.1-42.38-.772-.105-1.483-.184-2.39-.236-.634-.053-2.17-.105-2.17-.105Z" transform="translate(488.336 958.75)"/>
    <path id="hyundai" class="cls-1" d="M33.078,38.15c18.269,0,33.084-7.229,33.084-16.145S51.347,5.855,33.078,5.855,0,13.084,0,22,14.815,38.15,33.078,38.15m6.23-7.923c-.551,1.219-1.5,3.821-3.683,4.861a5.9,5.9,0,0,1-2.205.486h-.339a60.362,60.362,0,0,1-16.546-2.192l-.182-.066c-.441-.139-.662-.334-.662-.573a.708.708,0,0,1,.273-.512l.3-.255A39.56,39.56,0,0,1,26.9,26.546a55.364,55.364,0,0,1,7.788-2.365c1.676-.331,7.906-1.243,4.618,6.046M56.017,13.951a.666.666,0,0,1,.56-.373,1.109,1.109,0,0,1,.684.21c3.884,2.278,6.189,5.129,6.189,8.212,0,5.566-7.509,10.353-18.25,12.442-.684.131-1.147.126-1.3-.039-.11-.1-.138-.279,0-.5a2.147,2.147,0,0,1,.287-.381c5.844-6.569,10.3-16.263,11.565-19.059.1-.194.187-.386.265-.512m-29.064-.208c.551-1.217,1.5-3.821,3.68-4.851a5.656,5.656,0,0,1,2.205-.486c.168-.005.287,0,.331,0A60.092,60.092,0,0,1,49.721,10.6c.036.016.146.053.182.066.441.142.662.334.662.573a.7.7,0,0,1-.27.507q-.146.132-.3.252c-1.094.88-4.405,3.156-10.636,5.434a54.431,54.431,0,0,1-7.78,2.362c-1.682.342-7.912,1.246-4.623-6.044m-6-4.189c.689-.126,1.144-.126,1.312.039a.4.4,0,0,1-.006.5,2.348,2.348,0,0,1-.287.373c-5.844,6.577-10.3,16.263-11.573,19.067q-.12.262-.265.512a.659.659,0,0,1-.551.373,1.216,1.216,0,0,1-.692-.213C5.009,27.93,2.7,25.082,2.7,22c0-5.566,7.509-10.353,18.25-12.442Z" transform="translate(634.527 964.641)"/>
    <path id="kia" class="cls-1" d="M38.382,22.312c0,.121.041.189.113.189a.348.348,0,0,0,.16-.063L59.276,9.683a2.055,2.055,0,0,1,1.191-.342H65a1.074,1.074,0,0,1,1.163,1.1v8.248A2.047,2.047,0,0,1,65,20.8l-5.5,3.153a.39.39,0,0,1-.185.063c-.066,0-.132-.05-.132-.231V14.158c0-.113-.033-.187-.113-.187a.32.32,0,0,0-.16.063L43.849,23.365a2.092,2.092,0,0,1-1.158.334H32.7a1.072,1.072,0,0,1-1.163-1.109V10.7c0-.087-.041-.168-.121-.168a.334.334,0,0,0-.157.063l-9.944,5.684c-.1.063-.127.108-.127.152s.022.076.088.145l7.1,6.766c.094.089.16.158.16.234s-.108.113-.232.113h-6.42a1.608,1.608,0,0,1-1.166-.328l-4.306-4.1a.188.188,0,0,0-.132-.063.294.294,0,0,0-.132.039l-7.2,4.125a2.057,2.057,0,0,1-1.166.321H1.172A1.07,1.07,0,0,1,0,22.585V14.492a2.038,2.038,0,0,1,1.163-2.1L6.7,9.218a.294.294,0,0,1,.143-.042c.088,0,.132.079.132.263V20.275c0,.113.028.166.113.166a.408.408,0,0,0,.165-.063L25.933,9.659a2.1,2.1,0,0,1,1.23-.326H37.219a1.074,1.074,0,0,1,1.163,1.1l-.006,11.872Z" transform="translate(780.721 970.047)"/>
    <path id="mercedes" class="cls-2" d="M33.081,0C51.339,0,66.162,14.129,66.162,31.532S51.339,63.065,33.081,63.065,0,48.936,0,31.532,14.823,0,33.081,0ZM8.946,46.087A28.908,28.908,0,0,0,33.081,58.755,28.9,28.9,0,0,0,57.216,46.087L33.081,37.321Zm29.4-17.451L58.374,44.179a26.07,26.07,0,0,0,3.267-12.647c0-14.655-12.177-26.621-27.4-27.2ZM31.923,4.33c-15.226.581-27.4,12.547-27.4,27.2A26.072,26.072,0,0,0,7.788,44.179L27.821,28.637Z" transform="translate(926.91 955.111)"/>
    <path id="nissan" class="cls-1" d="M56.723,36.107l-.028.074c-3.438,9.573-12.915,15.992-23.6,15.992s-20.179-6.433-23.6-16l-.028-.076H1.957v.865l3.123.349a3.023,3.023,0,0,1,2.862,2.05l.132.252c4.516,9.184,14.346,15.115,25.031,15.115s20.519-5.931,25.034-15.1l.132-.25a3.025,3.025,0,0,1,2.862-2.052l3.126-.352v-.862ZM9.492,20.491c3.438-9.573,12.918-16,23.6-16s20.177,6.43,23.6,16l.028.074h7.52V19.7l-3.126-.349A3.025,3.025,0,0,1,58.258,17.3l-.13-.252C53.613,7.891,43.777,1.96,33.095,1.96c-10.7,0-20.519,5.931-25.034,15.115l-.132.25a3.025,3.025,0,0,1-2.862,2.052l-3.123.349v.865H9.453Zm38.214,4.168L42.9,32h2.073l.855-1.314h5.6L52.287,32h2.059l-4.805-7.344ZM50.553,29.3H46.708l1.93-2.954ZM58.3,26.5,64.009,32h2.153V24.658H64.469v5.479l-5.684-5.479H56.593V32H58.3ZM0,32H1.706V26.5L7.429,32H9.582V24.658H7.876v5.479L2.192,24.658H0Zm13.351-7.344h1.706V32H13.348ZM25.718,30.45a2.788,2.788,0,0,1-.342.013H18.589v1.5h6.892c.052,0,.46,0,.538-.013a2.179,2.179,0,0,0,2.048-2.215,2.138,2.138,0,0,0-1.944-2.189,5.139,5.139,0,0,0-.551-.026h-4.5a2.4,2.4,0,0,1-.5-.037.632.632,0,0,1-.485-.639.643.643,0,0,1,.5-.625,1.964,1.964,0,0,1,.474-.037h6.5V24.708h-6.6a4.429,4.429,0,0,0-.656.037,2.135,2.135,0,0,0-.028,4.244c.237.024.565.024.711.024h4.383a2.2,2.2,0,0,1,.314.013.715.715,0,0,1,.041,1.424Zm12.838,0a2.908,2.908,0,0,1-.356.013H31.427v1.5h6.892c.052,0,.46,0,.538-.013A2.179,2.179,0,0,0,40.9,29.737a2.138,2.138,0,0,0-1.944-2.189,5.139,5.139,0,0,0-.551-.026h-4.5a2.4,2.4,0,0,1-.5-.037.632.632,0,0,1-.485-.639.643.643,0,0,1,.5-.625,1.964,1.964,0,0,1,.474-.037h6.5V24.708h-6.6a4.429,4.429,0,0,0-.656.037,2.134,2.134,0,0,0-.025,4.244c.234.024.562.024.708.024H38.2a2.2,2.2,0,0,1,.314.013.7.7,0,0,1,.67.725.713.713,0,0,1-.629.7Z" transform="translate(1073.105 958.301)"/>
    <path id="skoda" class="cls-1" d="M32.967,0C14.7.06-.063,14.228,0,31.642S14.927,63.125,33.2,63.065s33.03-14.227,32.966-31.641S51.236-.06,32.967,0Zm.114,5.608A27.707,27.707,0,0,1,52.313,13.2a25.073,25.073,0,0,1,0,36.662,27.707,27.707,0,0,1-19.231,7.592A27.709,27.709,0,0,1,13.85,49.863a25.073,25.073,0,0,1,0-36.662A27.709,27.709,0,0,1,33.082,5.608ZM33.4,8.745a25.255,25.255,0,0,0-6.955.969h0a1.208,1.208,0,0,0-.5.255.561.561,0,0,0-.187.369.9.9,0,0,0,.394.718h0a32.648,32.648,0,0,1,7.05,7.608,4.061,4.061,0,0,1-2.811-1.285h0A39.411,39.411,0,0,0,22.522,11.9a1.3,1.3,0,0,0-1.287-.084h0a21.9,21.9,0,0,0-6.183,4.894.585.585,0,0,0-.165.6.8.8,0,0,0,.41.4A45.252,45.252,0,0,1,23.8,23.453a1.469,1.469,0,0,1-1.014.182,6.143,6.143,0,0,1-1.816-.644h0a36.018,36.018,0,0,0-7.561-2.719,1.135,1.135,0,0,0-1.266.437,21.179,21.179,0,0,0-2.663,7.455h0a1.041,1.041,0,0,0,.906,1.169,23.722,23.722,0,0,1,8.58,2.923,12.644,12.644,0,0,1,6.047,9.284.946.946,0,0,1-.368.915,1.119,1.119,0,0,1-1.157.047l-4.309-1.925h0a1.352,1.352,0,0,0-.536-.133H11.871a1.126,1.126,0,0,0-1.07.59,1.051,1.051,0,0,0,.249,1.155,40.253,40.253,0,0,1,4.387,5.745.626.626,0,0,0,.564.3h2.957a1.2,1.2,0,0,0,.607-.158q1.394-.779,2.79-1.556h0a.912.912,0,0,1,.486-.08H45.128a.476.476,0,0,1,.306.1.318.318,0,0,1,.119.258v1.045a.757.757,0,0,0,.885.721h0a14.27,14.27,0,0,0,7.369-3.449.8.8,0,0,0,0-1.214,14.262,14.262,0,0,0-7.369-3.45h0a.758.758,0,0,0-.885.721v.956a.572.572,0,0,1-.127.341.372.372,0,0,1-.283.154c-.219,0-.434.005-.648,0h0a.625.625,0,0,1-.617-.455,1.44,1.44,0,0,1-.028-.849C45.492,35.705,45.9,32.29,45.876,29.8a24.154,24.154,0,0,0-1.342-8.769c-1.2-3.341-2.314-6.649-8.123-11.663A2.257,2.257,0,0,0,35.02,8.8q-.81-.057-1.624-.057Zm4.212,25.5a2.977,2.977,0,1,1-3.117,2.975A3.052,3.052,0,0,1,37.608,34.245Z" transform="translate(1219.299 955.111)"/>
    <path id="toyota" class="cls-1" d="M33.081,3.848C14.4,3.848,0,12.914,0,25.269S14.4,46.69,33.081,46.69s33.081-9.066,33.081-21.421S51.764,3.848,33.081,3.848ZM53.3,13.936c0,2.838-4.755,5.027-12.372,5.9-.717-6.779-2.771-11.244-5.412-12.91,8.127.483,17.781,3.224,17.781,7.008Zm-20.218,22.9c-2.646,0-4.813-3.942-4.984-11.533q2.386.185,4.984.189t4.981-.189C37.894,32.895,35.728,36.834,33.081,36.834Zm0-16.576c-1.626,0-3.184-.05-4.659-.142.72-4.541,2.536-8.277,4.659-8.277s3.937,3.737,4.656,8.277C36.262,20.205,34.708,20.258,33.081,20.258ZM30.65,6.922c-2.635,1.663-4.7,6.13-5.414,12.915-7.617-.875-12.375-3.064-12.375-5.9,0-3.784,9.66-6.543,17.789-7.013ZM5.616,24.428A13.411,13.411,0,0,1,8.5,16.114c.744,4.065,6.953,7.57,16.463,8.855v.3c0,9.912,2.423,16.3,5.753,18.315C16.643,42.741,5.616,34.44,5.616,24.428ZM35.452,43.584c3.327-2.015,5.753-8.4,5.753-18.315v-.3c9.5-1.282,15.725-4.8,16.463-8.855a13.4,13.4,0,0,1,2.892,8.317C60.549,34.44,49.511,42.741,35.449,43.584Z" transform="translate(1365.488 961.375)"/>
    <path id="alfaromeo" class="cls-1" d="M37.232,14.864a.594.594,0,1,0-.594-.594.594.594,0,0,0,.594.594ZM11.642,19.2l-1.8,3.571L6.17,20.844l-.759,1.516a1.187,1.187,0,0,1,.252-.027,1.046,1.046,0,0,1,.422.083l4.1,2.149,2.439-4.851Zm43.236,1.189.855-.464,1.4,2.693.962-.521-1.4-2.693.816-.442,2.017,3.876.961-.521L57.7,16.955a1.126,1.126,0,0,1-.454.519l-3.99,2.164,2.77,5.323.962-.522ZM34.84,14.864a.594.594,0,1,0-.594-.594.594.594,0,0,0,.594.594ZM48.748,19.04l.007.009a21.027,21.027,0,0,1-7.1,33.126c-.025.012-.049.026-.075.037l.006,0,.069-.032a3.537,3.537,0,0,0-1.517-6.733l-3.725,0a.455.455,0,1,1,0-.911h6.291a5.362,5.362,0,0,0,0-10.723H36.634a.455.455,0,1,1,0-.911l4.639-.005a8.863,8.863,0,0,0,7.4-13.735l-.023-.033a.063.063,0,0,1-.013-.037.065.065,0,0,1,.065-.065.043.043,0,0,1,.043.02ZM39.789,52.914a21.091,21.091,0,0,1-15.6-.833V35.511h5.954a6.708,6.708,0,0,1,.41-5.179H24.188V13.918a21.057,21.057,0,0,1,18.963.65h0a1.533,1.533,0,0,1-.818,2.829H41.81l-2.09,0a1.994,1.994,0,0,0-1.393.437c-.73.633-.48,1.383-1.978,1.383H32.218a6.426,6.426,0,0,0,2.16,2.435h5.074a.491.491,0,0,1,.455.308.429.429,0,0,1,.028.267.491.491,0,0,1-.483.408H34.287a4.6,4.6,0,0,0-2.159,2.657h9.323a1.1,1.1,0,0,1,0,2.2H36.729a5.894,5.894,0,0,0,0,11.787h5.889a.461.461,0,0,1,.455.462.45.45,0,0,1-.455.449H36.587a4.317,4.317,0,1,0,0,8.634l2.278.008a2.123,2.123,0,0,1,2.1,2.108,2.307,2.307,0,0,1-1.174,1.968ZM19.01,30.333H12.169a20.98,20.98,0,0,1,6.841-13Zm0,18.338a20.982,20.982,0,0,1-6.859-13.159H19.01ZM33.027,10.836A22.163,22.163,0,1,0,55.19,33,22.164,22.164,0,0,0,33.027,10.836ZM32.2,16.361H37.43a.4.4,0,0,0,0-.793H32.2a.4.4,0,0,0,0,.793Zm.2-1.5a.594.594,0,1,0-.594-.594.594.594,0,0,0,.594.594Zm.822,7.294.074-.071h0l-.074-.071a5.659,5.659,0,0,1-1.98-2.688,3.581,3.581,0,0,0-.8-1.346,1.478,1.478,0,0,0-1.153-.53,2.671,2.671,0,0,0-.633.08l-.125.03.078.144a1.382,1.382,0,0,0,.708.73.328.328,0,0,0,.1.013q.046,0,.091-.005c.025,0,.049,0,.072,0a.1.1,0,0,1,.034,0c.407.235.62,1.971.62,2.835,0,.148-.061.215-.2.215a.682.682,0,0,1-.421-.176,1.286,1.286,0,0,0-.954-.4,1.225,1.225,0,0,0-1.285,1.1v.14a1.226,1.226,0,0,0,1.285,1.1,1.286,1.286,0,0,0,.954-.4.683.683,0,0,1,.421-.176c.136,0,.2.066.2.214,0,.865-.213,2.6-.62,2.835a.108.108,0,0,1-.034,0q-.036,0-.072,0t-.092-.005a.328.328,0,0,0-.1.013,1.382,1.382,0,0,0-.708.73l-.078.144.125.031a2.7,2.7,0,0,0,.633.08,1.476,1.476,0,0,0,1.153-.53,3.581,3.581,0,0,0,.8-1.346,5.659,5.659,0,0,1,1.98-2.688ZM7.255,27.994,6.919,30.2,4.995,28.75Zm-3.5,1.752a.678.678,0,0,1,.267-.053.694.694,0,0,1,.339.087l.008,0,4.2,3.227.213-1.4-.853-.642L8.436,27.6l1-.334.213-1.4L4.064,27.745ZM33,64.679A31.68,31.68,0,1,1,64.679,33,31.68,31.68,0,0,1,33,64.679ZM33,0A33,33,0,1,0,66,33,33,33,0,0,0,33,0Zm7.336,7.268a1.468,1.468,0,0,1,1.514-.981,2.969,2.969,0,0,1,1,.188c1.209.435,1.787,1.307,1.471,2.221a1.472,1.472,0,0,1-1.516.987A2.993,2.993,0,0,1,41.8,9.494c-1.206-.433-1.78-1.307-1.462-2.226Zm1.079,3.346A4.69,4.69,0,0,0,43,10.9h0a2.653,2.653,0,0,0,2.679-1.716,2.531,2.531,0,0,0-.334-2.277,4.259,4.259,0,0,0-2.113-1.556,4.625,4.625,0,0,0-1.563-.283,2.661,2.661,0,0,0-2.694,1.7c-.527,1.527.5,3.141,2.438,3.837Zm8.51.438-.505,4,.063.059,3.833-.9-2.107,2.852,1.033.964,3.2-4.215L54.251,12.71l-3.343.749.408-3.485L50.073,8.815h0l-.152-.141a1.01,1.01,0,0,1-.26.643l-3.312,3.217,1.039.969Zm9.967,20.574a1.484,1.484,0,0,1-.253.022c-.828,0-1.462-.722-1.655-1.884-.213-1.285.258-2.22,1.2-2.385a1.555,1.555,0,0,1,.249-.021c.814,0,1.462.736,1.652,1.877.215,1.289-.254,2.227-1.194,2.39Zm2.336-2.59c-.309-1.853-1.492-3.147-2.876-3.147a2.475,2.475,0,0,0-.407.035c-1.562.272-2.446,1.97-2.1,4.039.314,1.886,1.47,3.153,2.876,3.153a2.428,2.428,0,0,0,.416-.036C61.69,32.811,62.571,31.11,62.227,29.037ZM34.189,4.749h0a.734.734,0,0,1,.749.792.714.714,0,0,1-.757.783l-2.72.024-.014-1.575ZM30.078,8.938l1.4-.012L31.47,7.462l2.357-.021L34.858,8.9l1.566-.014L35.241,7.316l.146-.07A1.71,1.71,0,0,0,36.322,5.6a1.872,1.872,0,0,0-2-1.967l-4.286.037v0h-.248a1.14,1.14,0,0,1,.254.609Zm-9.307.89-1.938,1.113L18.77,8.531Zm-3.2-1.159,0,.009.092,5.3,1.23-.707-.03-1.068,2.952-1.7.885.575,1.227-.705-4.949-3.2-1.76,1a.7.7,0,0,1,.351.489ZM10.307,15.33l3.325,3.191.964-1.046L13.372,16.3l2.046-2.22-.794-.762-2.047,2.22-.946-.908,2.946-3.2-.794-.762L9.7,15.1a1.156,1.156,0,0,1,.605.221l0,0Z" transform="translate(1511.857 955.271)"/>
  </g>
</svg>
