<svg xmlns="http://www.w3.org/2000/svg" width="66.162" height="51.311" viewBox="0 0 66.162 51.311">
  <defs>
    <style>
      .cls-1 {
        fill: #b5adad;
      }
    </style>
  </defs>
  <path id="honda" class="cls-1" d="M65.893,14.413c-.91-8.456-6.809-10.235-12-11.047a101.38,101.38,0,0,0-10.244-.893c-2.608-.158-8.733-.236-10.572-.236-1.811,0-7.967.079-10.572.236a102.093,102.093,0,0,0-10.244.893c-5.191.838-11.1,2.612-12,11.047-.221,2.3-.276,5.316-.248,8.535A107.706,107.706,0,0,0,.833,34.412a55.109,55.109,0,0,0,1.894,9.554c1.318,3.666,2.525,4.738,3.926,5.839,2.583,1.989,6.812,2.617,7.691,2.775,4.778.815,14.446.967,18.7.967s13.922-.131,18.7-.967c.907-.158,5.136-.762,7.691-2.775,1.4-1.1,2.608-2.173,3.926-5.839a55.229,55.229,0,0,0,1.924-9.554,100.871,100.871,0,0,0,.824-11.465,63.3,63.3,0,0,0-.221-8.535M62.651,28.6c-.524,6.753-1.152,10.784-2.059,13.717a11.044,11.044,0,0,1-3.212,5.5c-2.39,2.068-5.687,2.512-7.609,2.775a139.261,139.261,0,0,1-16.7.788,144.954,144.954,0,0,1-16.7-.788c-1.921-.263-5.219-.707-7.609-2.775a11.117,11.117,0,0,1-3.184-5.5c-.907-2.9-1.538-6.963-2.059-13.717a86.167,86.167,0,0,1,.221-14.19c.711-5.284,3.46-7.93,9.337-8.924a85.922,85.922,0,0,1,9.941-.972c2.8-.184,7.443-.263,10.024-.236,2.58-.026,7.223.079,10.024.236a85.372,85.372,0,0,1,9.941.972c5.905.993,8.654,3.666,9.34,8.926a75.758,75.758,0,0,1,.3,14.19M48.313,6.556C46.8,13.025,46.2,15.984,44.961,20.667c-1.18,4.507-2.114,8.666-3.68,10.682a7.283,7.283,0,0,1-5.219,2.643c-.769.079-1.318.105-2.939.131a23.79,23.79,0,0,1-2.964-.131,7.241,7.241,0,0,1-5.216-2.643c-1.593-2.015-2.5-6.175-3.68-10.679-1.3-4.659-1.869-7.647-3.407-14.111,0,0-1.511.053-2.2.105-.907.053-1.621.131-2.39.236.946,14.116,1.908,29.112,3.1,42.385a63.53,63.53,0,0,0,6.589.444c.91-3.327,2.062-7.936,3.327-9.9a4.468,4.468,0,0,1,3.57-1.884,25.932,25.932,0,0,1,3.212-.21,18.659,18.659,0,0,1,3.212.21,4.55,4.55,0,0,1,3.57,1.884c1.3,1.963,2.418,6.569,3.325,9.9,0,0,.987-.026,3.212-.131a33.089,33.089,0,0,0,3.38-.315c1.263-14.163,2.164-28.19,3.1-42.38-.772-.105-1.483-.184-2.39-.236-.634-.053-2.17-.105-2.17-.105Z" transform="translate(0 -2.236)"/>
</svg>
