<svg xmlns="http://www.w3.org/2000/svg" width="66.162" height="32.295" viewBox="0 0 66.162 32.295">
  <defs>
    <style>
      .cls-1 {
        fill: #b5adad;
      }
    </style>
  </defs>
  <path id="hyundai" class="cls-1" d="M33.078,38.15c18.269,0,33.084-7.229,33.084-16.145S51.347,5.855,33.078,5.855,0,13.084,0,22,14.815,38.15,33.078,38.15m6.23-7.923c-.551,1.219-1.5,3.821-3.683,4.861a5.9,5.9,0,0,1-2.205.486h-.339a60.362,60.362,0,0,1-16.546-2.192l-.182-.066c-.441-.139-.662-.334-.662-.573a.708.708,0,0,1,.273-.512l.3-.255A39.56,39.56,0,0,1,26.9,26.546a55.364,55.364,0,0,1,7.788-2.365c1.676-.331,7.906-1.243,4.618,6.046M56.017,13.951a.666.666,0,0,1,.56-.373,1.109,1.109,0,0,1,.684.21c3.884,2.278,6.189,5.129,6.189,8.212,0,5.566-7.509,10.353-18.25,12.442-.684.131-1.147.126-1.3-.039-.11-.1-.138-.279,0-.5a2.147,2.147,0,0,1,.287-.381c5.844-6.569,10.3-16.263,11.565-19.059.1-.194.187-.386.265-.512m-29.064-.208c.551-1.217,1.5-3.821,3.68-4.851a5.656,5.656,0,0,1,2.205-.486c.168-.005.287,0,.331,0A60.092,60.092,0,0,1,49.721,10.6c.036.016.146.053.182.066.441.142.662.334.662.573a.7.7,0,0,1-.27.507q-.146.132-.3.252c-1.094.88-4.405,3.156-10.636,5.434a54.431,54.431,0,0,1-7.78,2.362c-1.682.342-7.912,1.246-4.623-6.044m-6-4.189c.689-.126,1.144-.126,1.312.039a.4.4,0,0,1-.006.5,2.348,2.348,0,0,1-.287.373c-5.844,6.577-10.3,16.263-11.573,19.067q-.12.262-.265.512a.659.659,0,0,1-.551.373,1.216,1.216,0,0,1-.692-.213C5.009,27.93,2.7,25.082,2.7,22c0-5.566,7.509-10.353,18.25-12.442Z" transform="translate(0 -5.855)"/>
</svg>
