<svg xmlns="http://www.w3.org/2000/svg" width="66.162" height="14.838" viewBox="0 0 66.162 14.838">
  <defs>
    <style>
      .cls-1 {
        fill: #b5adad;
      }
    </style>
  </defs>
  <path id="kia" class="cls-1" d="M38.382,22.312c0,.121.041.189.113.189a.348.348,0,0,0,.16-.063L59.276,9.683a2.055,2.055,0,0,1,1.191-.342H65a1.074,1.074,0,0,1,1.163,1.1v8.248A2.047,2.047,0,0,1,65,20.8l-5.5,3.153a.39.39,0,0,1-.185.063c-.066,0-.132-.05-.132-.231V14.158c0-.113-.033-.187-.113-.187a.32.32,0,0,0-.16.063L43.849,23.365a2.092,2.092,0,0,1-1.158.334H32.7a1.072,1.072,0,0,1-1.163-1.109V10.7c0-.087-.041-.168-.121-.168a.334.334,0,0,0-.157.063l-9.944,5.684c-.1.063-.127.108-.127.152s.022.076.088.145l7.1,6.766c.094.089.16.158.16.234s-.108.113-.232.113h-6.42a1.608,1.608,0,0,1-1.166-.328l-4.306-4.1a.188.188,0,0,0-.132-.063.294.294,0,0,0-.132.039l-7.2,4.125a2.057,2.057,0,0,1-1.166.321H1.172A1.07,1.07,0,0,1,0,22.585V14.492a2.038,2.038,0,0,1,1.163-2.1L6.7,9.218a.294.294,0,0,1,.143-.042c.088,0,.132.079.132.263V20.275c0,.113.028.166.113.166a.408.408,0,0,0,.165-.063L25.933,9.659a2.1,2.1,0,0,1,1.23-.326H37.219a1.074,1.074,0,0,1,1.163,1.1l-.006,11.872Z" transform="translate(0 -9.176)"/>
</svg>
