<svg xmlns="http://www.w3.org/2000/svg" width="66.162" height="63.065" viewBox="0 0 66.162 63.065">
  <defs>
    <style>
      .cls-1 {
        fill: #fff;
      }
    </style>
  </defs>
  <path id="mercedes" class="cls-1" d="M33.081,0C51.339,0,66.162,14.129,66.162,31.532S51.339,63.065,33.081,63.065,0,48.936,0,31.532,14.823,0,33.081,0ZM8.946,46.087A28.908,28.908,0,0,0,33.081,58.755,28.9,28.9,0,0,0,57.216,46.087L33.081,37.321Zm29.4-17.451L58.374,44.179a26.07,26.07,0,0,0,3.267-12.647c0-14.655-12.177-26.621-27.4-27.2ZM31.923,4.33c-15.226.581-27.4,12.547-27.4,27.2A26.072,26.072,0,0,0,7.788,44.179L27.821,28.637Z"/>
</svg>
