<svg xmlns="http://www.w3.org/2000/svg" width="66.162" height="52.764" viewBox="0 0 66.162 52.764">
  <defs>
    <style>
      .cls-1 {
        fill: #b5adad;
      }
    </style>
  </defs>
  <path id="nissan" class="cls-1" d="M56.723,36.107l-.028.074c-3.438,9.573-12.915,15.992-23.6,15.992s-20.179-6.433-23.6-16l-.028-.076H1.957v.865l3.123.349a3.023,3.023,0,0,1,2.862,2.05l.132.252c4.516,9.184,14.346,15.115,25.031,15.115s20.519-5.931,25.034-15.1l.132-.25a3.025,3.025,0,0,1,2.862-2.052l3.126-.352v-.862ZM9.492,20.491c3.438-9.573,12.918-16,23.6-16s20.177,6.43,23.6,16l.028.074h7.52V19.7l-3.126-.349A3.025,3.025,0,0,1,58.258,17.3l-.13-.252C53.613,7.891,43.777,1.96,33.095,1.96c-10.7,0-20.519,5.931-25.034,15.115l-.132.25a3.025,3.025,0,0,1-2.862,2.052l-3.123.349v.865H9.453Zm38.214,4.168L42.9,32h2.073l.855-1.314h5.6L52.287,32h2.059l-4.805-7.344ZM50.553,29.3H46.708l1.93-2.954ZM58.3,26.5,64.009,32h2.153V24.658H64.469v5.479l-5.684-5.479H56.593V32H58.3ZM0,32H1.706V26.5L7.429,32H9.582V24.658H7.876v5.479L2.192,24.658H0Zm13.351-7.344h1.706V32H13.348ZM25.718,30.45a2.788,2.788,0,0,1-.342.013H18.589v1.5h6.892c.052,0,.46,0,.538-.013a2.179,2.179,0,0,0,2.048-2.215,2.138,2.138,0,0,0-1.944-2.189,5.139,5.139,0,0,0-.551-.026h-4.5a2.4,2.4,0,0,1-.5-.037.632.632,0,0,1-.485-.639.643.643,0,0,1,.5-.625,1.964,1.964,0,0,1,.474-.037h6.5V24.708h-6.6a4.429,4.429,0,0,0-.656.037,2.135,2.135,0,0,0-.028,4.244c.237.024.565.024.711.024h4.383a2.2,2.2,0,0,1,.314.013.715.715,0,0,1,.041,1.424Zm12.838,0a2.908,2.908,0,0,1-.356.013H31.427v1.5h6.892c.052,0,.46,0,.538-.013A2.179,2.179,0,0,0,40.9,29.737a2.138,2.138,0,0,0-1.944-2.189,5.139,5.139,0,0,0-.551-.026h-4.5a2.4,2.4,0,0,1-.5-.037.632.632,0,0,1-.485-.639.643.643,0,0,1,.5-.625,1.964,1.964,0,0,1,.474-.037h6.5V24.708h-6.6a4.429,4.429,0,0,0-.656.037,2.134,2.134,0,0,0-.025,4.244c.234.024.562.024.708.024H38.2a2.2,2.2,0,0,1,.314.013.7.7,0,0,1,.67.725.713.713,0,0,1-.629.7Z" transform="translate(0 -1.96)"/>
</svg>
