<svg xmlns="http://www.w3.org/2000/svg" width="66.162" height="63.065" viewBox="0 0 66.162 63.065">
  <defs>
    <style>
      .cls-1 {
        fill: #b5adad;
      }
    </style>
  </defs>
  <path id="skoda" class="cls-1" d="M32.967,0C14.7.06-.063,14.228,0,31.642S14.927,63.125,33.2,63.065s33.03-14.227,32.966-31.641S51.236-.06,32.967,0Zm.114,5.608A27.707,27.707,0,0,1,52.313,13.2a25.073,25.073,0,0,1,0,36.662,27.707,27.707,0,0,1-19.231,7.592A27.709,27.709,0,0,1,13.85,49.863a25.073,25.073,0,0,1,0-36.662A27.709,27.709,0,0,1,33.082,5.608ZM33.4,8.745a25.255,25.255,0,0,0-6.955.969h0a1.208,1.208,0,0,0-.5.255.561.561,0,0,0-.187.369.9.9,0,0,0,.394.718h0a32.648,32.648,0,0,1,7.05,7.608,4.061,4.061,0,0,1-2.811-1.285h0A39.411,39.411,0,0,0,22.522,11.9a1.3,1.3,0,0,0-1.287-.084h0a21.9,21.9,0,0,0-6.183,4.894.585.585,0,0,0-.165.6.8.8,0,0,0,.41.4A45.252,45.252,0,0,1,23.8,23.453a1.469,1.469,0,0,1-1.014.182,6.143,6.143,0,0,1-1.816-.644h0a36.018,36.018,0,0,0-7.561-2.719,1.135,1.135,0,0,0-1.266.437,21.179,21.179,0,0,0-2.663,7.455h0a1.041,1.041,0,0,0,.906,1.169,23.722,23.722,0,0,1,8.58,2.923,12.644,12.644,0,0,1,6.047,9.284.946.946,0,0,1-.368.915,1.119,1.119,0,0,1-1.157.047l-4.309-1.925h0a1.352,1.352,0,0,0-.536-.133H11.871a1.126,1.126,0,0,0-1.07.59,1.051,1.051,0,0,0,.249,1.155,40.253,40.253,0,0,1,4.387,5.745.626.626,0,0,0,.564.3h2.957a1.2,1.2,0,0,0,.607-.158q1.394-.779,2.79-1.556h0a.912.912,0,0,1,.486-.08H45.128a.476.476,0,0,1,.306.1.318.318,0,0,1,.119.258v1.045a.757.757,0,0,0,.885.721h0a14.27,14.27,0,0,0,7.369-3.449.8.8,0,0,0,0-1.214,14.262,14.262,0,0,0-7.369-3.45h0a.758.758,0,0,0-.885.721v.956a.572.572,0,0,1-.127.341.372.372,0,0,1-.283.154c-.219,0-.434.005-.648,0h0a.625.625,0,0,1-.617-.455,1.44,1.44,0,0,1-.028-.849C45.492,35.705,45.9,32.29,45.876,29.8a24.154,24.154,0,0,0-1.342-8.769c-1.2-3.341-2.314-6.649-8.123-11.663A2.257,2.257,0,0,0,35.02,8.8q-.81-.057-1.624-.057Zm4.212,25.5a2.977,2.977,0,1,1-3.117,2.975A3.052,3.052,0,0,1,37.608,34.245Z"/>
</svg>
