<svg xmlns="http://www.w3.org/2000/svg" width="66.162" height="42.842" viewBox="0 0 66.162 42.842">
  <defs>
    <style>
      .cls-1 {
        fill: #b5adad;
      }
    </style>
  </defs>
  <path id="toyota" class="cls-1" d="M33.081,3.848C14.4,3.848,0,12.914,0,25.269S14.4,46.69,33.081,46.69s33.081-9.066,33.081-21.421S51.764,3.848,33.081,3.848ZM53.3,13.936c0,2.838-4.755,5.027-12.372,5.9-.717-6.779-2.771-11.244-5.412-12.91,8.127.483,17.781,3.224,17.781,7.008Zm-20.218,22.9c-2.646,0-4.813-3.942-4.984-11.533q2.386.185,4.984.189t4.981-.189C37.894,32.895,35.728,36.834,33.081,36.834Zm0-16.576c-1.626,0-3.184-.05-4.659-.142.72-4.541,2.536-8.277,4.659-8.277s3.937,3.737,4.656,8.277C36.262,20.205,34.708,20.258,33.081,20.258ZM30.65,6.922c-2.635,1.663-4.7,6.13-5.414,12.915-7.617-.875-12.375-3.064-12.375-5.9,0-3.784,9.66-6.543,17.789-7.013ZM5.616,24.428A13.411,13.411,0,0,1,8.5,16.114c.744,4.065,6.953,7.57,16.463,8.855v.3c0,9.912,2.423,16.3,5.753,18.315C16.643,42.741,5.616,34.44,5.616,24.428ZM35.452,43.584c3.327-2.015,5.753-8.4,5.753-18.315v-.3c9.5-1.282,15.725-4.8,16.463-8.855a13.4,13.4,0,0,1,2.892,8.317C60.549,34.44,49.511,42.741,35.449,43.584Z" transform="translate(0 -3.848)"/>
</svg>
